<svg class="icon" viewBox="0 0 1389 1024" xmlns="http://www.w3.org/2000/svg" width="271.289" height="200"><defs><style/></defs><path d="M314.514 658.286H204.8c-36.571 0-58.514 29.257-58.514 58.514v241.371c0 36.572 21.943 65.829 58.514 65.829h109.714c29.257 0 51.2-29.257 51.2-58.514V716.8c0-29.257-21.943-58.514-51.2-58.514zm292.572-219.429H497.37c-36.571 0-58.514 29.257-58.514 58.514v460.8c0 36.572 21.943 65.829 58.514 65.829h109.715c29.257 0 58.514-29.257 58.514-58.514V497.37c-7.314-29.257-29.257-58.514-58.514-58.514zm577.828-73.143H1075.2c-36.571 0-58.514 29.257-58.514 58.515V958.17c0 36.572 21.943 65.829 58.514 65.829h109.714c29.257 0 58.515-29.257 58.515-58.514V424.229c-7.315-29.258-29.258-58.515-58.515-58.515zM899.657 585.143H789.943c-36.572 0-58.514 29.257-58.514 58.514v314.514c0 36.572 21.942 65.829 58.514 65.829h109.714c29.257 0 51.2-29.257 51.2-58.514V643.657c0-29.257-21.943-58.514-51.2-58.514zM219.43 599.77l329.14-285.256L782.63 475.43c21.942 29.257 51.2 7.314 51.2 0l336.457-358.4v65.828c0 21.943 14.628 36.572 36.571 36.572s36.572-14.629 36.572-36.572V36.571C1243.429 14.63 1228.8 0 1206.857 0h-146.286C1038.63 0 1024 14.629 1024 36.571s14.629 36.572 36.571 36.572h51.2l-307.2 321.828-234.057-160.914c-14.628-14.628-36.571-14.628-51.2 0l-351.085 307.2c-14.629 14.629-14.629 43.886 0 58.514 14.628 7.315 36.571 7.315 51.2 0z" fill="#DE7D2C"/></svg>