<svg class="icon" viewBox="0 0 1024 1024" xmlns="http://www.w3.org/2000/svg" width="200" height="200"><defs><style/></defs><path d="M111.304 46.125h267.13a89.043 89.043 0 0189.044 89.043v267.13a89.043 89.043 0 01-89.043 89.044h-267.13a89.043 89.043 0 01-89.044-89.044v-267.13a89.043 89.043 0 0189.043-89.043zm0 489.739h267.13a89.043 89.043 0 0189.044 89.043v267.13a89.043 89.043 0 01-89.043 89.044h-267.13a89.043 89.043 0 01-89.044-89.043v-267.13a89.043 89.043 0 0189.043-89.044zm419.128-346.335L687.861 32.145a89.043 89.043 0 01125.907 0l157.43 157.384a89.043 89.043 0 010 125.952l-157.43 157.384a89.043 89.043 0 01-125.907 0L530.432 315.481a89.043 89.043 0 010-125.952zm70.611 346.335h267.13a89.043 89.043 0 0189.044 89.043v267.13a89.043 89.043 0 01-89.043 89.044h-267.13A89.043 89.043 0 01512 892.038v-267.13a89.043 89.043 0 0189.043-89.044z" fill="#DE7D2C"/></svg>