<svg class="icon" viewBox="0 0 1241 1024" xmlns="http://www.w3.org/2000/svg" width="242.383" height="200"><defs><style/></defs><path d="M626.29 856.199l-.103-552.375c-4.78-119.352 50.702-168.11 151.108-186.29 77.37-13.909 156.58-17.82 246.58-27.307 0 229.603-.332 652.5-.332 652.5l.332 54.486s-203.344-15.852-397.56 58.986zm-46.662 0c-194.114-74.864-397.585-58.986-397.585-59.063l.358-54.537s-.333-422.872-.333-652.474c90.077 9.588 169.185 13.5 246.529 27.41 100.33 18.178 155.914 66.937 151.108 186.289l-.077 552.375zm65.71 38.736c139.372-22.628 280.15-45.384 434.225-70.415V193.804h33.187l.102 657.92c-.767 27.205-30.145 75.938-47.659 76.833l-393.213.102c-10.662-.23-26.642-33.75-26.642-33.75zm-88.133 0s-15.878 33.494-26.54 33.826l-391.245-.102c-17.514-.87-48.528-49.602-49.295-76.858v-657.87h34.824V824.52c154.048 25.133 292.883 47.787 432.256 70.415z" fill="#DE7D2C"/></svg>